<svg xmlns="http://www.w3.org/2000/svg" version="1.0" width="512.000000" height="512.000000" preserveAspectRatio="xMidYMid meet" style=""><rect id="backgroundrect" width="100%" height="100%" x="0" y="0" fill="none" stroke="none"/>


<g class="currentLayer" style=""><title>Layer 1</title><g transform="translate(0,512) scale(0.10000000149011612,-0.10000000149011612) " fill="#ffffff" stroke="none" id="svg_1" class="selected" fill-opacity="1">
<path d="M2548 4859 c-136 -10 -424 -43 -498 -57 -66 -13 -100 -29 -100 -48 0 -8 66 -106 147 -217 323 -442 640 -943 737 -1162 53 -121 128 -258 192 -350 22 -33 85 -145 139 -250 140 -272 273 -516 382 -701 l95 -162 67 -31 c92 -42 204 -69 336 -81 224 -20 687 -6 821 25 165 38 199 60 170 113 -9 15 -35 70 -59 122 -24 52 -81 158 -127 235 -495 835 -668 1140 -945 1670 -103 198 -235 446 -293 550 -58 105 -113 210 -123 235 -16 44 -18 45 -85 62 -181 47 -573 68 -856 47z m1102 -2721 c0 -20 -18 -4 -33 30 l-17 37 25 -30 c14 -16 25 -33 25 -37z" id="svg_2" fill="#ffffff" fill-opacity="1"/>
<path d="M1588 4580 c-9 -6 -76 -126 -149 -268 -333 -648 -719 -1315 -1020 -1763 -232 -346 -282 -424 -328 -514 -54 -105 -85 -196 -76 -224 3 -11 1 -28 -6 -39 -31 -50 153 -473 409 -937 119 -215 243 -385 281 -385 64 0 138 82 305 338 117 180 196 316 421 732 291 536 634 1143 904 1600 94 159 108 200 72 220 -11 5 -52 72 -92 147 -97 185 -234 425 -456 796 -180 302 -184 307 -216 307 -18 0 -40 -5 -49 -10z" id="svg_3" fill="#ffffff" fill-opacity="1"/>
<path d="M1707 1629 c-10 -6 -99 -173 -199 -372 -99 -199 -224 -443 -278 -542 -91 -168 -170 -334 -170 -355 0 -13 67 -13 75 0 4 6 16 3 32 -10 14 -11 42 -25 62 -31 25 -8 390 -12 1251 -14 1212 -3 1345 -6 1658 -41 133 -15 144 -15 168 1 15 9 29 24 31 34 3 9 27 33 54 54 71 55 126 136 239 356 77 151 129 236 225 370 138 193 210 307 245 393 23 56 23 58 5 78 -10 11 -22 20 -27 20 -5 0 -20 12 -33 28 l-23 27 -349 -1 c-282 0 -411 -5 -683 -27 -184 -15 -405 -32 -490 -39 -199 -15 -839 -15 -1040 0 -229 18 -448 41 -598 63 -73 10 -134 19 -135 19 -1 0 -10 -5 -20 -11z" id="svg_4" fill="#ffffff" fill-opacity="1"/>
</g></g></svg>